<?xml version="1.0" encoding="utf-8"?>
<!-- Generator: Adobe Illustrator 19.0.0, SVG Export Plug-In . SVG Version: 6.00 Build 0)  -->
<svg version="1.1" id="Layer_1" xmlns="http://www.w3.org/2000/svg" xmlns:xlink="http://www.w3.org/1999/xlink" x="0px" y="0px"
	 viewBox="0 0 342.4 333.6" style="enable-background:new 0 0 342.4 333.6;" xml:space="preserve">
<style type="text/css">
	.st0{fill:#00FFFF;}
	.st1{fill:#FFFFFF;}
	.st2{fill:#FF036A;}
	.st3{fill:#00FDFF;}
	.st4{fill:#00BFBF;}
	.st5{fill:#2C200C;}
</style>
<g id="XMLID_2_">
	<g id="XMLID_76_">
		<g id="XMLID_134_">
			<g id="R9BioY_4_">
				<g id="XMLID_138_">
					<path id="XMLID_139_" class="st0" d="M260.4,22.2c-0.5-0.4-0.9-0.8-1.4-1.2c-0.1-0.1-0.1-0.2-0.1-0.3c0.1-0.4,0.2-0.8,0.2-1.3
						c0-0.1,0.1-0.2,0.2-0.3c0.5-0.2,1-0.5,1.5-0.7c0.3-0.1,0.4-0.3,0.3-0.6c-0.4-1-0.7-1.9-1.1-2.9c-0.1-0.3-0.2-0.3-0.5-0.3
						c-0.6,0.2-1.2,0.3-1.8,0.5c-0.1,0-0.2,0-0.3-0.1c-0.3-0.3-0.6-0.6-1-0.8c-0.1-0.1-0.1-0.1-0.1-0.2c0-0.6,0.1-1.2,0.1-1.8
						c0-0.2-0.1-0.3-0.3-0.4c-1-0.2-2-0.3-3-0.5c-0.3,0-0.4,0.1-0.5,0.3c-0.1,0.6-0.3,1.1-0.4,1.7c0,0.1-0.1,0.2-0.2,0.2
						c-0.4,0.1-0.8,0.2-1.2,0.5c-0.1,0.1-0.2,0.1-0.3,0c-0.5-0.3-0.9-0.6-1.4-0.9c-0.3-0.2-0.5-0.2-0.8,0.1
						c-0.6,0.7-1.2,1.5-1.8,2.2c-0.2,0.3-0.2,0.4,0,0.6c0.4,0.4,0.8,0.8,1.2,1.2c0.1,0.1,0.1,0.2,0.1,0.4c-0.1,0.4-0.2,0.8-0.2,1.2
						c0,0.2,0,0.2-0.2,0.3c-0.5,0.3-1,0.5-1.5,0.8c-0.2,0.1-0.3,0.3-0.2,0.6c0.4,1,0.7,1.9,1.1,2.9c0.1,0.3,0.2,0.3,0.5,0.2
						c0.6-0.2,1.2-0.3,1.8-0.5c0.1,0,0.2,0,0.3,0.1c0.3,0.3,0.6,0.6,1,0.8c0.1,0.1,0.1,0.1,0.1,0.2c0,0.6-0.1,1.1-0.1,1.7
						c0,0.4,0.1,0.5,0.4,0.6c0.5,0.1,0.9,0.2,1.4,0.2c0.5,0.1,1,0.2,1.5,0.2c0.3,0,0.5,0,0.5-0.4c0.1-0.5,0.3-1.1,0.4-1.7
						c0-0.1,0.1-0.2,0.2-0.2c0.4-0.1,0.8-0.2,1.2-0.5c0.1-0.1,0.2-0.1,0.4,0c0.5,0.3,0.9,0.6,1.4,0.9c0.3,0.2,0.5,0.1,0.7-0.1
						c0.6-0.8,1.3-1.5,1.9-2.3C260.7,22.6,260.7,22.5,260.4,22.2z M252.9,22.3c-1.7-0.3-2.9-1.9-2.6-3.7c0.3-1.8,1.9-2.9,3.7-2.6
						c1.8,0.3,2.9,1.9,2.6,3.7C256.2,21.4,254.6,22.6,252.9,22.3z"/>
				</g>
			</g>
			<g id="XMLID_135_">
				<path id="XMLID_137_" class="st1" d="M244.3,21c-3,1.1-5.9,2.7-8.5,4.6c-2.6,1.9-5.1,4.1-7.3,6.5c-0.6,0.6-1.1,1.3-1.6,1.9
					c-0.5,0.6-1,1.3-1.5,2l-1.4,2c-0.4,0.7-0.8,1.4-1.2,2.1c-0.9,1.4-1.5,2.9-2.2,4.4c-0.4,0.7-0.6,1.5-0.9,2.3l-0.9,2.3l0.8-2.3
					c0.3-0.8,0.5-1.6,0.9-2.3c0.7-1.5,1.3-3,2.1-4.4c0.4-0.7,0.8-1.5,1.2-2.2l1.4-2.1c0.4-0.7,1-1.3,1.5-2c0.5-0.6,1-1.3,1.5-1.9
					c2.1-2.5,4.6-4.8,7.2-6.7c2.7-2,5.5-3.7,8.7-4.9L244.3,21z"/>
				<path id="XMLID_136_" class="st1" d="M245.2,26.9c-2.9,1.1-5.6,2.6-8.2,4.3c-2.6,1.7-5.1,3.6-7.3,5.8c-2.2,2.2-4.4,4.5-6.2,7
					c-1,1.2-1.8,2.6-2.7,3.9c-0.8,1.3-1.5,2.7-2.3,4.1c0.7-1.4,1.4-2.8,2.2-4.1c0.8-1.3,1.6-2.7,2.6-3.9c1.8-2.6,3.9-4.9,6.1-7.2
					c2.2-2.2,4.7-4.2,7.3-6c2.6-1.8,5.3-3.4,8.3-4.6L245.2,26.9z"/>
			</g>
		</g>
		<g id="XMLID_127_">
			<path id="XMLID_129_" class="st1" d="M168.4,34.9l-2.1-1.3c0-0.1,3.7-5.9,2.2-10.7c-0.6-2.1-1.7-3.4-3.3-3.8c0,0-0.1,0-0.1,0
				c-0.8,2.5-2.5,4.7-4.2,5.6c-1.6,0.9-3.5,0.4-4.4-1c-0.9-1.3-0.8-3.5,1.2-5.1c1.3-1.1,3.2-1.9,5.3-2.1c0-0.9-0.2-1.8-0.6-2.6
				c-0.6-1.2-1.7-2.1-3-2.6c-0.2,2.2-1,4-2.4,5.1c-2.3,1.8-4.7,1.3-5.9,0c-1.1-1.2-1.4-3.5,0.6-5.6c1.3-1.3,3-2.1,5-2.3
				c-0.4-1.6-1.6-4.3-5-5.4c-3.6-1.1-6.9,0.5-8.8,2.4c0,0-0.1,0.1-0.1,0.1c1.5,0.8,2.5,2,2.9,3.4c0.6,2.6-0.9,4.4-2.6,4.9
				c-1.7,0.5-3.9-0.4-4.6-2.9c-0.3-1.2-0.2-2.5,0.3-3.8c-0.7,0-1.4,0.2-2.1,0.7c-3.1,1.9-2.7,4.9-2.7,4.9l-2.5,0.4
				c0-0.2-0.6-4.7,3.9-7.4c1.4-0.9,3.2-1.2,4.9-1c0.3-0.4,0.6-0.7,1-1.1c2.5-2.4,6.7-4.4,11.3-3c3.6,1.1,6.1,4.1,6.8,7.9
				c0,0,0,0.1,0,0.1c2.4,0.5,4.3,2,5.4,4.1c0.6,1.3,0.9,2.6,0.8,3.9c0.1,0,0.3,0.1,0.4,0.1c1.6,0.5,3.8,1.9,4.9,5.5
				C172.7,28,168.6,34.6,168.4,34.9z M162.5,18.9c-1.2,0.3-2.3,0.8-3.2,1.5c-0.7,0.6-1,1.3-0.7,1.8c0.2,0.3,0.6,0.5,1.1,0.2
				C160.7,21.8,161.8,20.5,162.5,18.9z M156.9,10.8c-1.3,0.1-2.5,0.7-3.4,1.5c-0.8,0.8-1,1.7-0.5,2.2c0.4,0.5,1.4,0.6,2.5-0.3
				C156.3,13.6,156.9,12.3,156.9,10.8z M141.3,7.4c-0.5,1-0.7,1.9-0.4,2.7c0.3,1.1,1,1.3,1.5,1.2c0.6-0.2,1.1-0.8,0.8-1.9
				C143,8.6,142.3,7.9,141.3,7.4z"/>
			<circle id="XMLID_128_" class="st2" cx="131.8" cy="17" r="6"/>
		</g>
		<g id="XMLID_94_">
			<g id="XMLID_124_">
				<path id="XMLID_126_" class="st0" d="M148.8,227.5l-31.7,9.2c-2.4-8.2,2.8-16.9,11.5-19.5C137.3,214.7,146.4,219.3,148.8,227.5z
					"/>
				<path id="XMLID_125_" class="st1" d="M151,167.9c-17.8,10.8-21.8,34.3-17.5,53c0.6,2.6,4.6,1.5,4-1.1
					c-3.9-16.8-0.6-38.5,15.5-48.3C155.4,170.1,153.3,166.5,151,167.9L151,167.9z"/>
			</g>
			<g id="XMLID_121_">
				<path id="XMLID_123_" class="st0" d="M198.2,249.6l-31.5-10c2.6-8.2,11.8-12.5,20.5-9.7C195.8,232.6,200.8,241.4,198.2,249.6z"
					/>
				<path id="XMLID_122_" class="st1" d="M183.5,169.5c9.4,19.3,6.1,44-3.7,62.3c-1.3,2.4,2.3,4.5,3.6,2.1
					c10.6-19.7,13.8-45.8,3.7-66.5C186,165,182.4,167.1,183.5,169.5L183.5,169.5z"/>
			</g>
			<g id="XMLID_118_">
				<path id="XMLID_120_" class="st1" d="M154.7,127.1c-20.3-4.7-39.5,9.3-49.5,25.8c-1.4,2.3,2.2,4.4,3.6,2.1
					c8.9-14.8,26.4-28.1,44.8-23.9C156.2,131.7,157.3,127.7,154.7,127.1L154.7,127.1z"/>
				<path id="XMLID_119_" class="st0" d="M110.6,168.1l-5.6-3.4c1.6-2.6,1.1-5.7-1.1-7c-2.2-1.3-5.2-0.3-6.8,2.2l-5.6-3.4
					c3.8-6.2,11.1-8.6,16.4-5.4C113.2,154.3,114.4,161.9,110.6,168.1z"/>
			</g>
			<g id="XMLID_115_">
				<path id="XMLID_117_" class="st1" d="M181.1,129.5c20.3,4.7,39.5-9.3,49.5-25.8c1.4-2.3-2.2-4.4-3.6-2.1
					c-8.9,14.8-26.4,28.1-44.8,23.9C179.6,124.9,178.5,128.9,181.1,129.5L181.1,129.5z"/>
				<path id="XMLID_116_" class="st0" d="M223.5,90.1l5.6,3.4c-1.6,2.6-1.1,5.7,1.1,7c2.2,1.3,5.2,0.3,6.8-2.2l5.6,3.4
					c-3.8,6.2-11.1,8.6-16.4,5.4C220.9,103.9,219.7,96.3,223.5,90.1z"/>
			</g>
			<rect id="XMLID_114_" x="160.9" y="107.4" class="st1" width="11.3" height="13.4"/>
			<circle id="XMLID_113_" class="st2" cx="167.6" cy="48" r="15.6"/>
			<path id="XMLID_112_" class="st2" d="M123.3,91.3h-5.2c-3.1,0-5.6-2.5-5.6-5.6V64.6c0-3.1,2.5-5.6,5.6-5.6h5.2
				c3.1,0,5.6,2.5,5.6,5.6v21.1C128.9,88.8,126.4,91.3,123.3,91.3z"/>
			<path id="XMLID_111_" class="st2" d="M217.2,91.3h-5.2c-3.1,0-5.6-2.5-5.6-5.6V64.6c0-3.1,2.5-5.6,5.6-5.6h5.2
				c3.1,0,5.6,2.5,5.6,5.6v21.1C222.8,88.8,220.3,91.3,217.2,91.3z"/>
			<path id="XMLID_110_" class="st3" d="M122.5,95c-1-11.9-2.2-42.9-1.6-47.6c0.4-3.2,0.8-8.1,14.1-8.1c7.7,0,16.5,0,31.1,0
				c43.8,0,31,0,38.2,0c7.3,0,10.3,2,10.3,15.9c0,13.9-1.1,36-1.1,40.4c0,4.5,0,6.4-11.2,6.4c-11.2,0-63.6,0-72.2,0
				S122.7,98.2,122.5,95z"/>
			<path id="XMLID_109_" class="st4" d="M119.4,100.1c0,0,22.2-5.8,45.8-6.9c28.7-1.4,52.5,0,52.5,0s-0.9,9.3-1.7,12.2
				c-0.9,2.9-6.2,5.8-21.3,5.8c-15.1,0-60.3,0-65,0c-4.7,0-7.3-1.2-8.8-5.1C119.4,102.1,119.4,100.1,119.4,100.1z"/>
			<g id="XMLID_104_">
				<circle id="XMLID_108_" class="st4" cx="140.8" cy="76.6" r="14.7"/>
				<circle id="XMLID_105_" class="st1" cx="140.8" cy="76.5" r="11.5"/>
			</g>
			<g id="XMLID_99_">
				<circle id="XMLID_103_" class="st4" cx="192" cy="72.3" r="17.8"/>
				<circle id="XMLID_100_" class="st1" cx="192.4" cy="72.4" r="13.9"/>
			</g>
			<path id="XMLID_98_" class="st5" d="M142,75.2h-1.7c-1,0-1.9-0.8-1.9-1.9v-3.5c0-1,0.8-1.9,1.9-1.9h1.7c1,0,1.9,0.8,1.9,1.9v3.5
				C143.8,74.3,143,75.2,142,75.2z"/>
			<path id="XMLID_1_" class="st5" d="M192.9,82.4h-1.7c-1,0-1.9-0.8-1.9-1.9V77c0-1,0.8-1.9,1.9-1.9h1.7c1,0,1.9,0.8,1.9,1.9v3.5
				C194.7,81.6,193.9,82.4,192.9,82.4z"/>
			<path id="XMLID_96_" class="st0" d="M146.3,120l40-2.4c3.1-0.2,5.7,2.3,5.7,5.4v43.3c0,3-2.4,5.4-5.4,5.4h-35.8
				c-2.8,0-5.1-2.1-5.3-4.8l-4.2-40.9C141,122.9,143.3,120.2,146.3,120z"/>
			<path id="XMLID_95_" class="st2" d="M177.5,146.7h-20.3c-3.8,0-6.8-3-6.8-6.8V133c0-3.8,3-6.8,6.8-6.8h20.3c3.8,0,6.8,3,6.8,6.8
				v6.9C184.3,143.7,181.2,146.7,177.5,146.7z"/>
		</g>
		<g id="R9BioY_2_">
			<g id="XMLID_89_">
				<path id="XMLID_90_" class="st0" d="M240,148.2c-0.4-0.7-0.7-1.4-1.1-2.2c-0.1-0.2-0.1-0.3,0-0.4c0.4-0.5,0.6-1,0.9-1.5
					c0.1-0.2,0.2-0.2,0.3-0.2c0.7-0.1,1.5-0.1,2.2-0.2c0.4,0,0.6-0.2,0.6-0.6c0-1.4,0-2.7,0-4.1c0-0.4-0.1-0.5-0.5-0.6
					c-0.8-0.1-1.6-0.2-2.4-0.3c-0.2,0-0.3-0.1-0.4-0.2c-0.2-0.5-0.5-1-0.8-1.5c-0.1-0.1-0.1-0.2,0-0.3c0.4-0.7,0.7-1.5,1.1-2.2
					c0.1-0.3,0.1-0.5-0.1-0.6c-1.2-0.7-2.3-1.4-3.5-2.1c-0.3-0.2-0.5-0.1-0.7,0.2c-0.4,0.6-0.9,1.2-1.3,1.8
					c-0.1,0.2-0.2,0.2-0.4,0.2c-0.6-0.1-1.1-0.1-1.7,0c-0.2,0-0.3,0-0.4-0.2c-0.4-0.6-0.9-1.2-1.3-1.8c-0.3-0.4-0.6-0.5-1-0.2
					c-1.1,0.6-2.2,1.3-3.4,1.9c-0.4,0.2-0.5,0.4-0.3,0.8c0.3,0.7,0.6,1.4,0.9,2.1c0.1,0.2,0.1,0.3,0,0.5c-0.3,0.5-0.6,0.9-0.8,1.5
					c-0.1,0.2-0.2,0.3-0.4,0.3c-0.8,0.1-1.5,0.1-2.3,0.2c-0.4,0-0.6,0.2-0.6,0.6c0,1.4,0,2.8,0,4.1c0,0.4,0.2,0.5,0.5,0.5
					c0.8,0.1,1.6,0.2,2.4,0.3c0.2,0,0.3,0.1,0.4,0.2c0.2,0.5,0.5,1,0.8,1.5c0.1,0.1,0.1,0.2,0,0.4c-0.3,0.7-0.6,1.3-0.9,2
					c-0.2,0.4-0.2,0.6,0.3,0.9c0.5,0.3,1.1,0.6,1.6,1c0.6,0.3,1.2,0.7,1.8,1c0.4,0.2,0.6,0.2,0.8-0.2c0.4-0.6,0.9-1.2,1.3-1.8
					c0.1-0.1,0.2-0.2,0.4-0.2c0.6,0.1,1.1,0.1,1.7,0c0.2,0,0.3,0,0.4,0.2c0.4,0.6,0.9,1.2,1.3,1.8c0.3,0.4,0.6,0.4,0.9,0.2
					c1.1-0.6,2.3-1.3,3.4-1.9C240.2,148.8,240.2,148.6,240,148.2z M230.7,144.6c-2-1.2-2.7-3.8-1.5-5.8c1.2-2,3.8-2.7,5.8-1.5
					c2,1.2,2.7,3.7,1.5,5.8C235.3,145.2,232.7,145.9,230.7,144.6z"/>
			</g>
		</g>
		<g id="XMLID_80_">
			<g id="R9BioY_1_">
				<g id="XMLID_84_">
					<path id="XMLID_85_" class="st0" d="M86.1,117.3c-0.4-0.5-0.8-0.9-1.2-1.4c-0.1-0.1-0.1-0.2-0.1-0.3c0.2-0.4,0.3-0.8,0.4-1.2
						c0-0.1,0.1-0.2,0.2-0.2c0.5-0.2,1.1-0.4,1.6-0.6c0.3-0.1,0.4-0.3,0.3-0.6c-0.2-1-0.5-2-0.7-3c-0.1-0.3-0.2-0.4-0.5-0.3
						c-0.6,0.1-1.2,0.2-1.8,0.3c-0.1,0-0.2,0-0.3-0.1c-0.3-0.3-0.6-0.7-0.9-0.9c-0.1-0.1-0.1-0.1-0.1-0.2c0.1-0.6,0.2-1.2,0.4-1.8
						c0.1-0.2,0-0.3-0.2-0.4c-1-0.3-2-0.6-3-0.9c-0.3-0.1-0.4,0-0.5,0.3c-0.2,0.5-0.4,1.1-0.6,1.6c-0.1,0.1-0.1,0.2-0.3,0.2
						c-0.4,0-0.8,0.1-1.2,0.3c-0.1,0.1-0.2,0-0.3-0.1c-0.4-0.4-0.9-0.7-1.3-1.1c-0.3-0.2-0.5-0.2-0.8,0c-0.7,0.7-1.4,1.3-2.1,2
						c-0.3,0.2-0.3,0.4,0,0.6c0.3,0.5,0.7,0.9,1,1.3c0.1,0.1,0.1,0.2,0.1,0.4c-0.1,0.4-0.3,0.8-0.3,1.2c0,0.1-0.1,0.2-0.2,0.3
						c-0.5,0.2-1.1,0.4-1.6,0.6c-0.3,0.1-0.4,0.3-0.3,0.5c0.2,1,0.5,2,0.7,3c0.1,0.3,0.2,0.3,0.5,0.3c0.6-0.1,1.2-0.2,1.8-0.3
						c0.1,0,0.2,0,0.3,0.1c0.3,0.3,0.6,0.7,0.9,1c0.1,0.1,0.1,0.1,0.1,0.3c-0.1,0.5-0.2,1.1-0.3,1.6c-0.1,0.4,0,0.5,0.4,0.6
						c0.5,0.1,0.9,0.3,1.4,0.4c0.5,0.1,1,0.3,1.5,0.4c0.3,0.1,0.5,0,0.6-0.3c0.2-0.5,0.4-1.1,0.6-1.6c0-0.1,0.1-0.2,0.2-0.2
						c0.4,0,0.8-0.1,1.2-0.3c0.2-0.1,0.2,0,0.4,0.1c0.4,0.4,0.9,0.7,1.3,1.1c0.2,0.2,0.5,0.2,0.7,0c0.7-0.7,1.4-1.4,2.1-2
						C86.4,117.7,86.4,117.6,86.1,117.3z M78.6,116.4c-1.7-0.5-2.7-2.3-2.2-4c0.5-1.7,2.3-2.7,4-2.2c1.7,0.5,2.6,2.2,2.1,4
						C82.1,116,80.4,116.9,78.6,116.4z"/>
				</g>
			</g>
			<g id="XMLID_81_">
				<path id="XMLID_83_" class="st1" d="M88.1,107.8c3.9-0.6,7.7-0.6,11.6-0.2c1.9,0.2,3.8,0.5,5.7,0.9l2.8,0.7l2.8,0.9
					c0.9,0.3,1.8,0.7,2.7,1c0.9,0.4,1.8,0.7,2.6,1.1l2.6,1.3c0.8,0.5,1.7,1,2.5,1.5c1.7,0.9,3.2,2.1,4.8,3.2l0.6,0.4l0.6,0.5
					l1.1,0.9l2.2,1.9l-2.2-1.8l-1.1-0.9l-0.6-0.5l-0.6-0.4c-1.6-1.1-3.1-2.2-4.8-3.1c-0.8-0.5-1.7-1-2.5-1.4l-2.6-1.2
					c-0.9-0.4-1.8-0.7-2.7-1.1c-0.9-0.3-1.8-0.7-2.7-1l-2.7-0.8l-2.8-0.6c-1.9-0.4-3.8-0.7-5.7-0.8c-3.8-0.3-7.7-0.3-11.4,0.4
					L88.1,107.8z"/>
				<path id="XMLID_82_" class="st1" d="M90.8,114.3c3.7-0.6,7.4-0.6,11.1-0.3c3.7,0.3,7.3,0.8,10.9,1.7c3.6,0.9,7.1,2.1,10.4,3.6
					c1.7,0.7,3.3,1.6,4.9,2.4c0.8,0.4,1.6,0.9,2.4,1.4l2.3,1.4l-2.4-1.4c-0.8-0.5-1.6-1-2.4-1.3c-1.6-0.8-3.2-1.7-5-2.3
					c-3.3-1.5-6.9-2.5-10.4-3.4c-3.5-0.9-7.2-1.3-10.8-1.5c-3.6-0.2-7.3-0.1-10.9,0.5L90.8,114.3z"/>
			</g>
		</g>
		<g id="XMLID_77_">
			<path id="XMLID_79_" class="st1" d="M221.3,137.8c-3.4-1.6-7.1-2.7-10.8-3.4c-1.9-0.4-3.8-0.6-5.7-0.7l-2.9-0.1l-2.9,0.1
				c-1,0-1.9,0.1-2.9,0.2c-1,0.1-1.9,0.2-2.8,0.3l-2.8,0.5c-0.9,0.2-1.9,0.5-2.8,0.7c-1.9,0.4-3.7,1.1-5.5,1.7l-0.7,0.2l-0.7,0.3
				l-1.3,0.6l-2.6,1.2l2.6-1.2l1.3-0.6l0.7-0.3l0.7-0.2c1.8-0.6,3.6-1.4,5.5-1.8c0.9-0.2,1.9-0.5,2.8-0.7l2.8-0.5
				c0.9-0.2,1.9-0.3,2.9-0.4c1-0.1,1.9-0.3,2.9-0.3l2.9-0.1l2.9,0.1c1.9,0.1,3.8,0.3,5.8,0.6c3.8,0.6,7.6,1.6,11.1,3.3L221.3,137.8z
				"/>
			<path id="XMLID_78_" class="st1" d="M217,143.3c-3.2-1.5-6.8-2.6-10.3-3.4c-3.6-0.8-7.2-1.3-10.8-1.4c-3.6-0.1-7.3,0-10.9,0.5
				c-1.8,0.2-3.6,0.6-5.4,0.9c-0.9,0.1-1.8,0.4-2.7,0.7l-2.7,0.7l2.6-0.8c0.9-0.2,1.8-0.5,2.7-0.7c1.8-0.4,3.6-0.8,5.4-1
				c3.6-0.6,7.3-0.8,11-0.7c3.7,0,7.3,0.5,10.9,1.2c3.6,0.7,7.2,1.7,10.6,3.3L217,143.3z"/>
		</g>
	</g>
	<g id="XMLID_3_">
		<g id="XMLID_65_">
			<g id="XMLID_66_">
				<path id="XMLID_73_" class="st0" d="M81.6,293.3H41.5v-22.8l37.9-115.2h25.9v115.2h12v22.8h-12v38.4H81.6V293.3z M63.6,270.5h18
					V210h-1.4l-1.4,5.3L63.6,270.5z"/>
				<path id="XMLID_70_" class="st0" d="M195.8,295.5c-0.2,7.2-1.7,13.7-4.3,19.2c-2.2,4.8-5.5,9.4-10.3,13c-4.8,3.8-11.3,6-19.9,6
					c-8.6,0-15.4-2.2-20.2-6c-4.8-3.6-7.9-8.2-10.1-13c-2.6-5.5-4.1-12-4.3-19.2V191.6c0.2-7,1.7-13.4,4.3-19
					c2.2-4.8,5.3-9.6,10.1-13.2c4.8-3.6,11.5-6,20.2-6c8.6,0,15.1,2.4,19.9,6c4.8,3.6,8.2,8.4,10.3,13.2c2.6,5.5,4.1,12,4.3,19
					V295.5z M169.9,191.6c0-4.8-1-8.2-3.4-11c-1.2-1.2-3.1-1.9-5.3-1.9c-4.6,0-6.7,3.4-7.7,6.5c-0.7,1.9-1,4.1-1,6.5v103.9
					c0,5,1.2,8.4,3.6,11c1.2,1.2,2.9,1.9,5,1.9c4.6,0,6.7-2.9,7.7-6.5c0.7-1.7,1-3.8,1-6.5V191.6z"/>
				<path id="XMLID_67_" class="st0" d="M246.7,293.3h-40.1v-22.8l37.9-115.2h25.9v115.2h12v22.8h-12v38.4h-23.8V293.3z
					 M228.7,270.5h18V210h-1.4l-1.4,5.3L228.7,270.5z"/>
			</g>
		</g>
		<g id="XMLID_54_">
			<g id="XMLID_55_">
				<path id="XMLID_62_" class="st2" d="M94.1,292.2H54v-22.8l37.9-115.2h25.9v115.2h12v22.8h-12v38.4H94.1V292.2z M76.1,269.4h18
					v-60.5h-1.4l-1.4,5.3L76.1,269.4z"/>
				<path id="XMLID_59_" class="st2" d="M208.3,294.3c-0.2,7.2-1.7,13.7-4.3,19.2c-2.2,4.8-5.5,9.4-10.3,13c-4.8,3.8-11.3,6-19.9,6
					c-8.6,0-15.4-2.2-20.2-6c-4.8-3.6-7.9-8.2-10.1-13c-2.6-5.5-4.1-12-4.3-19.2V190.4c0.2-7,1.7-13.4,4.3-19
					c2.2-4.8,5.3-9.6,10.1-13.2c4.8-3.6,11.5-6,20.2-6c8.6,0,15.1,2.4,19.9,6c4.8,3.6,8.2,8.4,10.3,13.2c2.6,5.5,4.1,12,4.3,19
					V294.3z M182.4,190.4c0-4.8-1-8.2-3.4-11c-1.2-1.2-3.1-1.9-5.3-1.9c-4.6,0-6.7,3.4-7.7,6.5c-0.7,1.9-1,4.1-1,6.5v103.9
					c0,5,1.2,8.4,3.6,11c1.2,1.2,2.9,1.9,5,1.9c4.6,0,6.7-2.9,7.7-6.5c0.7-1.7,1-3.8,1-6.5V190.4z"/>
				<path id="XMLID_56_" class="st2" d="M259.2,292.2h-40.1v-22.8L257,154.2H283v115.2h12v22.8h-12v38.4h-23.8V292.2z M241.2,269.4
					h18v-60.5h-1.4l-1.4,5.3L241.2,269.4z"/>
			</g>
		</g>
		<g id="XMLID_43_">
			<g id="XMLID_44_">
				<path id="XMLID_51_" class="st1" d="M86.8,290.1H46.7v-22.8l37.9-115.2h25.9v115.2h12v22.8h-12v38.4H86.8V290.1z M68.8,267.3h18
					v-60.5h-1.4l-1.4,5.3L68.8,267.3z"/>
				<path id="XMLID_48_" class="st1" d="M201,292.2c-0.2,7.2-1.7,13.7-4.3,19.2c-2.2,4.8-5.5,9.4-10.3,13c-4.8,3.8-11.3,6-19.9,6
					c-8.6,0-15.4-2.2-20.2-6c-4.8-3.6-7.9-8.2-10.1-13c-2.6-5.5-4.1-12-4.3-19.2V188.3c0.2-7,1.7-13.4,4.3-19
					c2.2-4.8,5.3-9.6,10.1-13.2c4.8-3.6,11.5-6,20.2-6c8.6,0,15.1,2.4,19.9,6c4.8,3.6,8.2,8.4,10.3,13.2c2.6,5.5,4.1,12,4.3,19
					V292.2z M175.1,188.3c0-4.8-1-8.2-3.4-11c-1.2-1.2-3.1-1.9-5.3-1.9c-4.6,0-6.7,3.4-7.7,6.5c-0.7,1.9-1,4.1-1,6.5v103.9
					c0,5,1.2,8.4,3.6,11c1.2,1.2,2.9,1.9,5,1.9c4.6,0,6.7-2.9,7.7-6.5c0.7-1.7,1-3.8,1-6.5V188.3z"/>
				<path id="XMLID_45_" class="st1" d="M251.8,290.1h-40.1v-22.8l37.9-115.2h25.9v115.2h12v22.8h-12v38.4h-23.8V290.1z
					 M233.8,267.3h18v-60.5h-1.4l-1.4,5.3L233.8,267.3z"/>
			</g>
		</g>
		<g id="XMLID_30_">
			<rect id="XMLID_42_" x="12.5" y="172.2" class="st2" width="86.6" height="8.5"/>
			<rect id="XMLID_41_" x="165.1" y="317" class="st2" width="52" height="8.5"/>
			<rect id="XMLID_40_" x="273.3" y="194.3" class="st2" width="69" height="7.4"/>
			<rect id="XMLID_39_" x="102.6" y="194.3" class="st2" width="28.9" height="7.4"/>
			<rect id="XMLID_38_" x="235.7" y="164.9" class="st2" width="28.9" height="7.4"/>
			<rect id="XMLID_37_" x="122.9" y="226" class="st2" width="36.5" height="7.4"/>
			<rect id="XMLID_36_" x="241.2" y="300" class="st2" width="32.5" height="7.4"/>
			<rect id="XMLID_35_" x="21" y="266.1" class="st2" width="48.1" height="3.3"/>
			<rect id="XMLID_34_" x="268.3" y="240.8" class="st2" width="48.1" height="3.3"/>
			<rect id="XMLID_33_" x="149.3" y="257.8" class="st2" width="26.8" height="3.3"/>
			<rect id="XMLID_32_" x="62.7" y="244" class="st2" width="26.8" height="3.3"/>
			<rect id="XMLID_31_" x="49.3" y="307.3" class="st2" width="26.8" height="3.3"/>
		</g>
		<g id="XMLID_17_">
			<rect id="XMLID_29_" y="173.3" class="st0" width="86.6" height="8.5"/>
			<rect id="XMLID_28_" x="152.5" y="318.1" class="st0" width="52" height="8.5"/>
			<rect id="XMLID_27_" x="260.8" y="195.4" class="st0" width="69" height="7.4"/>
			<rect id="XMLID_26_" x="90" y="195.4" class="st0" width="28.9" height="7.4"/>
			<rect id="XMLID_25_" x="223.2" y="166" class="st0" width="28.9" height="7.4"/>
			<rect id="XMLID_24_" x="110.4" y="227.1" class="st0" width="36.5" height="7.4"/>
			<rect id="XMLID_23_" x="228.7" y="301.1" class="st0" width="32.5" height="7.4"/>
			<rect id="XMLID_22_" x="8.5" y="267.3" class="st0" width="48.1" height="3.3"/>
			<rect id="XMLID_21_" x="255.7" y="241.9" class="st0" width="48.1" height="3.3"/>
			<rect id="XMLID_20_" x="136.7" y="259" class="st0" width="26.8" height="3.3"/>
			<rect id="XMLID_19_" x="50.2" y="245.2" class="st0" width="26.8" height="3.3"/>
			<rect id="XMLID_18_" x="36.8" y="308.4" class="st0" width="26.8" height="3.3"/>
		</g>
		<g id="XMLID_4_">
			<rect id="XMLID_16_" x="5.2" y="170.1" class="st1" width="86.6" height="8.5"/>
			<rect id="XMLID_15_" x="157.7" y="314.8" class="st1" width="52" height="8.5"/>
			<rect id="XMLID_14_" x="266" y="192.1" class="st1" width="69" height="7.4"/>
			<rect id="XMLID_13_" x="95.2" y="192.1" class="st1" width="28.9" height="7.4"/>
			<rect id="XMLID_12_" x="228.4" y="162.7" class="st1" width="28.9" height="7.4"/>
			<rect id="XMLID_11_" x="115.6" y="223.8" class="st1" width="36.5" height="7.4"/>
			<rect id="XMLID_10_" x="233.8" y="297.8" class="st1" width="32.5" height="7.4"/>
			<rect id="XMLID_9_" x="13.7" y="264" class="st1" width="48.1" height="3.3"/>
			<rect id="XMLID_8_" x="260.9" y="238.6" class="st1" width="48.1" height="3.3"/>
			<rect id="XMLID_7_" x="141.9" y="255.7" class="st1" width="26.8" height="3.3"/>
			<rect id="XMLID_6_" x="55.4" y="241.9" class="st1" width="26.8" height="3.3"/>
			<rect id="XMLID_5_" x="42" y="305.2" class="st1" width="26.8" height="3.3"/>
		</g>
	</g>
</g>
</svg>
